<svg width="136" height="136" viewBox="0 0 136 136" fill="none" xmlns="http://www.w3.org/2000/svg">
    <path fill-rule="evenodd" clip-rule="evenodd" d="M67.1604 79.4799C74.783 79.4799 80.8903 73.3267 80.8903 65.7041L80.9362 38.1523C80.9362 30.5297 74.783 24.3765 67.1604 24.3765C59.5377 24.3765 53.3845 30.5297 53.3845 38.1523V65.7041C53.3845 73.3267 59.5377 79.4799 67.1604 79.4799ZM61.65 37.693C61.65 34.6623 64.1297 32.1827 67.1604 32.1827C70.1911 32.1827 72.6707 34.6623 72.6707 37.693L72.6248 66.1631C72.6248 69.1938 70.1911 71.6735 67.1604 71.6735C64.1297 71.6735 61.65 69.1938 61.65 66.1631V37.693ZM67.1603 89.1229C79.8341 89.1229 91.4976 79.4798 91.4976 65.7039H99.304C99.304 81.4084 86.8138 94.3577 71.7522 96.5618V111.623H62.5683V96.5618C47.5067 94.3118 35.0166 81.3625 35.0166 65.7039H42.8229C42.8229 79.4798 54.4865 89.1229 67.1603 89.1229Z" fill="white"/>
    <circle cx="68" cy="68" r="66.5" stroke="white" stroke-width="3"/>
</svg>
