<svg width="311" height="295" viewBox="0 0 311 295" fill="none" xmlns="http://www.w3.org/2000/svg">
    <rect x="0.983276" y="0.414673" width="309.051" height="294.523" rx="20" fill="#F2F4F9"/>
    <path d="M150.875 151.602C150.875 159.219 149.742 165.605 147.477 170.762C145.211 175.879 141.988 179.746 137.809 182.363L150.641 195.254L146.07 199.883L131.422 185.117C128.883 185.82 126.168 186.172 123.277 186.172C114.605 186.172 107.848 183.164 103.004 177.148C98.1602 171.094 95.6992 162.715 95.6211 152.012V133.203C95.6211 122.227 98.0625 113.711 102.945 107.656C107.828 101.562 114.566 98.5156 123.16 98.5156C131.949 98.5156 138.766 101.562 143.609 107.656C148.453 113.75 150.875 122.324 150.875 133.379V151.602ZM144.137 133.086C144.137 123.75 142.34 116.738 138.746 112.051C135.152 107.363 129.957 105.02 123.16 105.02C116.676 105.02 111.598 107.324 107.926 111.934C104.254 116.504 102.379 123.359 102.301 132.5V151.602C102.301 160.977 104.156 168.027 107.867 172.754C111.578 177.441 116.715 179.785 123.277 179.785C129.996 179.785 135.113 177.52 138.629 172.988C142.184 168.457 144.02 161.621 144.137 152.48V133.086ZM195.523 149.492H175.602V185H168.863V99.6875H192.242C200.016 99.6875 206.031 101.914 210.289 106.367C214.586 110.781 216.734 116.934 216.734 124.824C216.734 130.332 215.406 135.176 212.75 139.355C210.094 143.496 206.52 146.367 202.027 147.969L219.781 184.238V185H212.633L195.523 149.492ZM175.602 143.281H193.414C198.453 143.281 202.477 141.562 205.484 138.125C208.492 134.648 209.996 130.215 209.996 124.824C209.996 118.848 208.434 114.219 205.309 110.938C202.184 107.656 197.809 106.016 192.184 106.016H175.602V143.281Z" fill="#467DE4"/>
</svg>
